<svg width="20" height="16" viewBox="0 0 20 16" fill="none" xmlns="http://www.w3.org/2000/svg">
<path d="M11.3419 2.03615V15.6061C12.1902 15.4567 13.4497 15.2932 14.96 15.3045C17.3333 15.3222 18.8342 15.7538 19.2924 15.8278V2.27071C19.1064 2.24994 17.4148 1.75366 14.96 1.7242C13.889 1.71131 12.6625 1.79307 11.3419 2.03615ZM13.0375 11.8101V5.17674L18.0128 8.49341L13.0375 11.8101Z" fill="#6A6B6C"/>
<path d="M14.1677 7.28857V9.6984L15.9748 8.49351L14.1677 7.28857Z" fill="#6A6B6C"/>
<path d="M10.2088 15.8399C10.209 15.8399 10.2108 15.8394 10.211 15.8394V2.27625C9.98602 2.16125 7.5505 0.219448 3.98593 0.0308976L3.39093 0V13.567L3.92908 13.5929C7.8071 13.778 9.74792 15.605 10.2088 15.8399Z" fill="#6A6B6C"/>
<path d="M7.16346 14.4676C6.32138 14.1327 5.21808 13.8482 3.87527 13.7843L2.2608 13.7064V1C0.961104 1.19319 0.266322 1.40197 0 1.46192V15.0621L0.702091 14.886C2.79902 14.3624 5.01988 14.2257 7.16346 14.4676Z" fill="#6A6B6C"/>
</svg>
