<svg width="14" height="16" viewBox="0 0 14 16" fill="none" xmlns="http://www.w3.org/2000/svg">
<path d="M1.83666 2.76783C1.9911 2.85474 3.0307 3.35698 3.53295 3.59883C3.53491 3.79377 3.53922 4.13087 3.54584 4.1366C3.6012 4.61932 3.69622 5.1556 3.72374 5.30705C3.67808 5.33237 3.44337 5.48585 3.44337 5.96322C3.44358 5.96591 3.44382 5.9684 3.44403 5.97112C3.44368 5.98364 3.44337 5.99626 3.44337 6.00923C3.5444 7.3361 4.07209 6.76425 4.18091 7.34545C4.36191 8.31179 5.21754 9.01094 5.75014 9.2523C6.05796 9.39174 6.37475 9.46286 6.70768 9.46969C7.04062 9.46289 7.35741 9.39174 7.66523 9.2523C8.19782 9.01094 9.05345 8.31175 9.23446 7.34545C9.34327 6.76422 9.87097 7.3361 9.97203 6.00923C9.97203 5.99623 9.97168 5.98364 9.97134 5.97112C9.97154 5.96843 9.97178 5.96595 9.97203 5.96322C9.97203 5.48581 9.73725 5.33237 9.69162 5.30705C9.71918 5.1556 9.8142 4.61935 9.86952 4.1366C9.87611 4.13087 9.88046 3.7938 9.88242 3.59883C10.1583 3.46597 10.5961 3.25465 10.9604 3.07668V4.35933C10.8592 4.41907 10.7881 4.52451 10.7881 4.65022C10.7881 4.76152 10.8446 4.85582 10.9269 4.91814C10.9269 4.91814 10.7805 5.7409 10.7332 5.98288C10.6859 6.2248 11.5679 6.17627 11.5282 5.98288C11.4886 5.78943 11.3346 4.91814 11.3346 4.91814C11.417 4.85582 11.4734 4.76152 11.4734 4.65022C11.4734 4.52447 11.4026 4.4191 11.3015 4.35933V2.9091C11.4373 2.84174 11.5383 2.79052 11.5787 2.76783C11.688 2.70633 11.7468 2.62766 11.7344 2.54592C11.7493 2.46069 11.6877 2.36909 11.5223 2.2881C10.342 1.71033 7.33278 0.237705 7.03524 0.0957788C6.90542 0.0338692 6.79856 0.00651862 6.70768 0C6.6168 0.00651862 6.50995 0.0338692 6.38013 0.0957788C6.08259 0.237705 3.0734 1.71036 1.89308 2.2881C1.72763 2.36909 1.66603 2.46069 1.681 2.54592C1.66852 2.62766 1.72739 2.70633 1.83666 2.76783Z" fill="#6A6B6C"/>
<path d="M10.7144 11.0674C10.1591 10.8671 9.19252 10.2899 9.0269 10.2009C8.984 10.1759 8.93426 10.1614 8.88105 10.1614C8.76485 10.1614 8.66483 10.2296 8.61827 10.3282C8.16041 11.0947 7.31158 13.3236 6.71931 13.3649C6.71569 13.3646 6.71197 13.3639 6.70831 13.3635C6.70466 13.3639 6.70093 13.3646 6.69731 13.3649C6.10505 13.3236 5.25621 11.0947 4.79836 10.3282C4.75176 10.2296 4.65177 10.1614 4.53558 10.1614C4.48232 10.1614 4.43262 10.1759 4.38968 10.2009C4.2241 10.2899 3.25751 10.8671 2.70223 11.0674C0.838315 11.7394 0 12.4249 0 12.8922C0 12.9058 0 12.9213 0 12.9382C0 13.5075 0 15.954 0 15.954C0 15.9838 0 16 0 16H6.69731H6.70831H6.71931H13.4166C13.4166 16 13.4166 15.9838 13.4166 15.954C13.4166 15.954 13.4166 13.5074 13.4166 12.9382C13.4166 12.9213 13.4166 12.9058 13.4166 12.8922C13.4166 12.4249 12.5783 11.7394 10.7144 11.0674Z" fill="#6A6B6C"/>
</svg>
